<svg width="28" height="26" viewBox="0 0 28 26" fill="none" xmlns="http://www.w3.org/2000/svg">
<path d="M9.57164 19.1839H23.2137C23.7614 19.1839 24.2463 18.7583 24.2463 18.1489C24.2463 17.5417 23.7614 17.1203 23.2137 17.1203H9.83203C9.26109 17.1203 8.90999 16.7148 8.82139 16.1054L6.94381 3.22693C6.80975 2.21912 6.39937 1.70935 5.1007 1.70935H1.08233C0.499683 1.70935 0 2.21443 0 2.80341C0 3.39989 0.499683 3.90707 1.08233 3.90707H4.77539L6.59133 16.344C6.85008 18.1009 7.78805 19.1839 9.57164 19.1839ZM7.52085 14.8918H23.3004C25.0894 14.8918 26.0316 13.8034 26.2882 12.0306L27.173 6.13716C27.1964 5.97849 27.2241 5.78255 27.2241 5.65177C27.2241 4.98381 26.7494 4.51483 25.9509 4.51483H6.47179L6.4814 6.5902H24.8206L24.0687 11.8196C23.9876 12.4407 23.6599 12.826 23.0698 12.826H7.50163L7.52085 14.8918ZM10.527 25.0416C11.6555 25.0416 12.5562 24.1484 12.5562 23.0103C12.5562 21.886 11.6555 20.9811 10.527 20.9811C9.39305 20.9811 8.48602 21.886 8.48602 23.0103C8.48602 24.1484 9.39305 25.0416 10.527 25.0416ZM21.3638 25.0416C22.4998 25.0416 23.4026 24.1484 23.4026 23.0103C23.4026 21.886 22.4998 20.9811 21.3638 20.9811C20.2395 20.9811 19.3249 21.886 19.3249 23.0103C19.3249 24.1484 20.2395 25.0416 21.3638 25.0416Z" fill="black"/>
</svg>
